<svg width="313" height="104" viewBox="0 0 313 104" fill="none" xmlns="http://www.w3.org/2000/svg">
<path d="M296.216 103.3C288.516 103.3 279.626 97.7001 279.626 86.1501C279.626 74.7401 288.236 67.1101 298.036 67.1101C306.856 67.1101 311.966 72.8501 312.176 79.5001H284.806C284.666 80.5501 284.596 81.6001 284.596 82.7201C284.596 92.3101 290.546 98.8901 299.646 98.8901C305.036 98.8901 308.886 96.4401 312.106 92.8001L312.736 93.4301C309.166 98.3301 303.706 103.3 296.216 103.3ZM285.016 78.5901H306.576C305.876 73.9001 302.096 68.3701 295.726 68.3701C289.776 68.3001 286.136 72.7101 285.016 78.5901Z" fill="#8F3E20"/>
<path d="M264.694 102.6V101.69C266.794 101.06 267.494 99.45 267.494 93.71V56.61C267.494 51.71 266.584 51.01 264.694 50.17V49.4L272.324 46.04L272.954 46.53V93.71C272.954 99.45 273.584 101.06 275.754 101.69V102.6H264.694Z" fill="#8F3E20"/>
<path d="M247.001 103.3C238.881 103.3 230.411 97.4201 230.411 86.1501C230.411 75.0901 239.231 67.1101 249.451 67.1101C256.171 67.1101 261.351 69.0001 261.351 70.8901C261.351 72.5001 259.181 74.6701 256.941 74.6701C255.191 74.6701 251.901 72.6401 246.301 68.2301C239.791 69.3501 235.381 75.1601 235.381 82.7201C235.381 92.3101 241.331 98.8901 250.431 98.8901C255.821 98.8901 259.671 96.4401 262.891 92.8001L263.521 93.4301C259.951 98.3301 254.491 103.3 247.001 103.3Z" fill="#8F3E20"/>
<path d="M221.642 102.6C220.242 102.6 219.542 101.83 219.542 100.5V87.9001C217.372 96.5101 211.492 103.3 204.562 103.3C199.382 103.3 194.762 100.15 194.762 94.1301C194.762 86.8501 202.112 84.1201 210.442 81.8101L219.542 79.3601C219.192 72.5701 215.692 69.4201 209.742 69.4201C205.542 69.4201 201.482 71.3801 197.982 75.6501L197.352 75.0901C201.342 70.1201 206.452 67.1101 212.542 67.1101C221.012 67.1101 224.932 71.8001 224.932 79.7101V93.7101C224.932 99.4501 225.562 101.06 227.732 101.69V102.6H221.642ZM200.012 92.1701C200.012 96.7201 203.162 99.1701 207.152 99.1701C214.642 99.1701 219.472 89.7201 219.542 82.3701V80.4101V80.2701L210.722 82.6501C205.542 84.1201 199.942 86.4301 200.012 92.1701Z" fill="#8F3E20"/>
<path d="M171.004 102.6V101.69C173.174 101.06 173.804 99.45 173.804 93.71V77.61C173.804 72.71 172.894 72.01 171.004 71.17V70.4L178.634 67.04L179.264 67.53V76.28C180.384 73.55 182.274 71.17 184.374 69.63C186.544 68.02 188.994 67.11 192.354 67.11C195.154 67.11 196.904 67.81 196.904 69C196.904 70.54 195.364 72.99 192.844 72.99C190.954 72.99 188.224 72.22 184.094 71.03C182.064 72.5 179.544 76.42 179.334 79.78H179.264V93.71C179.264 99.45 179.894 101.06 182.064 101.69V102.6H171.004Z" fill="#8F3E20"/>
<path d="M141.92 103.3C130.02 103.3 117 95.39 117 78.03C117 63.68 127.08 53.04 141.92 53.04C153.75 53.04 166.7 61.16 166.7 78.31C166.7 95.6 153.68 103.3 141.92 103.3ZM122.6 73.97C123.09 88.04 132.33 101.55 144.86 101.55C156.06 101.55 161.59 93.43 161.24 82.93C160.75 68.3 151.58 54.65 139.05 54.65C128.41 54.65 122.18 62.56 122.6 73.97Z" fill="#8F3E20"/>
<path d="M159.528 55.3C155.118 55.3 152.458 52.57 152.458 45.29V20.58H147.978V19.6L156.938 10.99H157.918V19.6H168.558L168.208 20.58H157.918V45.29C157.918 50.05 159.878 51.87 162.888 51.87C164.848 51.87 167.298 50.96 169.608 48.23L170.238 48.86C167.228 52.29 163.658 55.3 159.528 55.3Z" fill="#8F3E20"/>
<path d="M134.354 54.6V53.69C136.524 53.06 137.154 51.45 137.154 45.71V29.61C137.154 24.71 136.314 24.01 134.354 23.17V22.4L142.054 19.04L142.614 19.53V45.71C142.614 51.45 143.314 53.06 145.414 53.69V54.6H134.354ZM135.614 10.92C135.614 8.68 137.294 7 139.464 7C141.704 7 143.314 8.68 143.314 10.92C143.314 13.02 141.634 14.77 139.464 14.77C137.294 14.77 135.614 13.02 135.614 10.92Z" fill="#8F3E20"/>
<path d="M115.124 54.6V53.69C117.224 53.06 117.924 51.45 117.924 45.71V21.07H113.864L114.214 20.09H117.924C118.484 9.66 128.074 0 139.484 0C142.634 0 144.244 0.63 144.244 1.82C144.244 3.08 142.494 5.88 139.624 5.88C136.474 5.88 133.464 4.9 129.474 3.5C127.094 4.83 123.384 7.07 123.384 15.89V20.09H132.554L132.134 21.07H123.384V45.71C123.384 51.45 124.014 53.06 126.184 53.69V54.6H115.124Z" fill="#8F3E20"/>
<path d="M103.102 55.3C98.6918 55.3 96.0318 52.57 96.0318 45.29V20.58H91.5518V19.6L100.512 10.99H101.492V19.6H112.132L111.782 20.58H101.492V45.29C101.492 50.05 103.452 51.87 106.462 51.87C108.422 51.87 110.872 50.96 113.182 48.23L113.812 48.86C110.802 52.29 107.232 55.3 103.102 55.3Z" fill="#8F3E20"/>
<path d="M67.0237 55.3C59.6737 55.3 56.3137 50.61 56.3137 42.56V29.61C56.3137 24.71 55.4037 24.01 53.5137 23.17V22.4L61.1437 19.04L61.7737 19.53V41.3C61.7737 49.28 64.0137 52.85 69.6137 52.85C73.7437 52.85 77.5237 50.26 80.6737 46.9V29.61C80.6737 24.71 79.7637 24.01 77.8737 23.17V22.4L85.5037 19.04L86.1337 19.53V45.71C86.1337 51.45 86.7637 53.06 88.9337 53.69V54.6H82.9837C81.4437 54.6 80.6737 53.83 80.6737 51.8V48.23C77.1037 51.94 72.2737 55.3 67.0237 55.3Z" fill="#8F3E20"/>
<path d="M24.92 55.3C13.02 55.3 0 47.39 0 30.03C0 15.68 10.08 5.04004 24.92 5.04004C36.75 5.04004 49.7 13.16 49.7 30.31C49.7 47.6 36.68 55.3 24.92 55.3ZM5.6 25.97C6.09 40.04 15.33 53.55 27.86 53.55C39.06 53.55 44.59 45.43 44.24 34.93C43.75 20.3 34.58 6.65003 22.05 6.65003C11.41 6.65003 5.18 14.56 5.6 25.97Z" fill="#8F3E20"/>
</svg>
