<svg width="249" height="149" viewBox="0 0 249 149" fill="none" xmlns="http://www.w3.org/2000/svg">
<path d="M211.647 41.8564C212.955 41.8565 213.609 42.2556 213.609 43.0547C213.609 43.3453 213.428 43.6729 213.064 44.0361C212.774 44.3268 211.72 45.2715 209.903 46.8701C208.087 48.4687 206.306 50.0674 204.562 51.666C202.891 53.192 200.529 55.3721 197.477 58.2061C194.425 61.04 191.409 63.9108 188.43 66.8174C185.45 69.724 181.927 73.2121 177.857 77.2812C173.788 81.2779 170.554 84.5118 168.156 86.9824C165.831 89.3803 163.869 91.3422 162.271 92.8682C160.745 94.3942 159.436 95.7387 158.346 96.9014C157.256 97.9912 156.094 99.1902 154.858 100.498C153.623 101.806 152.678 102.969 152.024 103.986C151.37 104.931 151.043 105.694 151.043 106.275C151.043 106.856 151.297 107.146 151.806 107.146C154.689 107.146 159.658 104.884 166.714 100.364C167.841 97.8915 169.898 95.3205 172.885 92.6504C177.753 88.3631 184.148 86.2188 192.068 86.2188C194.684 86.2188 196.937 86.7645 198.826 87.8545C200.28 86.6918 201.079 86.1104 201.225 86.1104C203.186 86.3283 204.204 86.5099 204.276 86.6553C204.349 86.7279 204.386 86.8371 204.386 86.9824C204.385 87.1281 204.095 87.6007 203.514 88.3994C202.932 89.1261 201.225 90.9063 198.391 93.7402C191.342 100.644 187.817 104.822 187.817 106.275C187.817 106.856 188.072 107.147 188.58 107.147C191.687 107.147 197.213 104.522 205.161 99.2764L204.862 97.8818C214.817 91.3422 221.212 88.0725 224.046 88.0723C225.935 88.0723 226.88 89.1261 226.88 91.2334C226.879 93.4861 223.61 97.2283 217.07 102.46C214.89 104.204 213.8 105.367 213.8 105.948C213.8 106.311 214.273 106.493 215.217 106.493C217.397 106.493 220.74 105.076 225.245 102.242C229.75 99.3355 233.529 96.4648 236.581 93.6309C241.014 89.4889 243.412 87.418 243.775 87.418C244.211 87.418 244.829 87.5272 245.628 87.7451C246.5 87.9631 246.936 88.2172 246.937 88.5078C246.937 88.7258 246.427 89.3073 245.41 90.252C244.393 91.1241 237.489 97.955 224.7 110.744C231.821 107.111 237.38 104.059 241.377 101.588C245.446 99.1173 247.808 97.6636 248.462 97.2275L248.681 98.8633C245.411 100.753 243.085 102.17 241.704 103.114C236.618 106.239 229.932 109.799 221.648 113.796C210.894 124.55 201.738 133.089 194.181 139.411C186.551 145.806 180.846 149.003 177.067 149.003C174.96 149.003 173.906 147.804 173.906 145.406C173.906 143.008 174.996 140.537 177.176 137.994C179.356 135.524 182.59 132.98 186.877 130.364C193.635 126.295 202.683 121.498 214.019 115.976C214.527 115.758 214.926 115.576 215.217 115.431C216.452 114.195 218.415 112.124 221.104 109.218C223.865 106.311 226.262 103.84 228.297 101.806C221.757 106.093 217.215 108.237 214.672 108.237C212.129 108.237 210.857 107.328 210.857 105.512C210.858 103.041 214.127 99.1531 220.667 93.8486C222.774 92.1046 223.828 90.9784 223.828 90.4697C223.828 89.8886 223.537 89.5977 222.956 89.5977C221.721 89.5977 219.65 90.47 216.743 92.2139C213.909 93.9579 212.129 95.0484 211.402 95.4844C210.693 95.9101 209.637 96.5777 208.234 97.4883L208.418 98.8633C198.754 105.185 191.923 108.346 187.927 108.346C185.965 108.346 184.983 107.438 184.983 105.621C184.983 103.732 186.11 101.298 188.362 98.3184C179.788 104.64 173.103 107.837 168.307 107.91C166.563 107.91 165.69 106.856 165.69 104.749C165.69 103.972 165.792 103.185 165.995 102.387C159.267 106.358 154.32 108.346 151.152 108.346C149.19 108.346 148.209 107.438 148.209 105.621C148.209 103.659 149.372 101.225 151.697 98.3184C143.123 104.64 136.401 107.837 131.532 107.91C129.788 107.91 128.916 106.856 128.916 104.749C128.916 103.982 129.016 103.205 129.214 102.417C127.105 103.679 125.027 104.313 122.979 104.313C120.799 104.313 119.345 103.186 118.618 100.934C112.805 106.093 107.282 108.673 102.05 108.673C98.9255 108.673 97.3633 107.183 97.3633 104.204C97.3633 100.425 99.58 96.501 104.013 92.4316C108.445 88.2899 113.786 86.2188 120.035 86.2188C123.886 86.2188 125.812 87.4908 125.812 90.0342C125.812 92.2141 124.468 94.83 121.779 97.8818V98.7539C121.779 101.152 122.833 102.351 124.94 102.351C126.248 102.351 127.701 101.806 129.3 100.716L129.985 100.268C131.121 97.8246 133.163 95.2855 136.11 92.6504C140.979 88.3631 147.373 86.2188 155.294 86.2188C157.983 86.2188 160.272 86.7636 162.161 87.8535C162.524 87.5629 162.96 87.1637 163.469 86.6553L209.031 42.5098C209.467 42.0739 210.34 41.8564 211.647 41.8564ZM212.383 118.265C199.521 124.441 191.565 128.584 188.513 130.691C185.388 132.799 182.881 134.615 180.991 136.141C179.029 137.667 177.612 139.12 176.74 140.501C175.868 141.954 175.433 143.48 175.433 145.079C175.433 146.678 176.232 147.477 177.83 147.477C181.754 147.477 193.272 137.739 212.383 118.265ZM160.012 24.7432C150.783 28.0859 140.065 35.8615 127.857 48.0693C126.767 49.1593 114.595 62.0571 91.3418 86.7637C89.0891 88.9437 85.8553 91.7052 81.6406 95.0479C84.7652 98.6084 86.328 102.46 86.3281 106.602C86.3281 112.197 83.3483 117.284 77.3896 121.862C71.5037 126.513 62.784 129.71 51.2305 131.454V130.255C61.3309 128.656 69.07 125.604 74.4473 121.099C79.8242 116.666 82.5126 111.725 82.5127 106.275C82.5127 102.933 81.4589 99.7713 79.3516 96.792C65.4725 106.747 53.4466 111.724 43.2734 111.725C38.6228 111.725 34.7707 110.998 31.7188 109.545C26.4143 111.071 21.1826 111.834 16.0234 111.834C10.8641 111.834 6.90294 110.998 4.1416 109.327C1.38052 107.729 9.11118e-05 105.657 0 103.114C0 99.6263 2.39834 96.1017 7.19434 92.541C11.9902 88.9078 18.6389 86.1829 27.1406 84.3662C29.9746 79.6429 33.8991 75.7184 38.9131 72.5938C43.9997 69.3965 49.5586 67.7979 55.5898 67.7979C59.2958 67.7979 62.0574 68.5976 63.874 70.1963C65.6906 71.7223 66.5986 73.7933 66.5986 76.4092C66.5986 78.9525 65.8355 81.7141 64.3096 84.6934C70.1955 86.3647 75.0647 88.8712 78.916 92.2139L115.431 55.8076C121.753 48.8316 128.874 42.3282 136.795 36.2969C144.716 30.1929 152.564 25.9787 160.339 23.6533L160.012 24.7432ZM26.3779 85.7832C19.1115 87.5998 13.2984 90.2157 8.93848 93.6309C4.57848 96.9735 2.39844 100.207 2.39844 103.332C2.39845 105.512 3.56042 107.256 5.88574 108.564C8.28374 109.945 11.7359 110.635 16.2412 110.635C20.7464 110.635 25.2516 109.908 29.7568 108.455C25.5423 105.839 23.4346 101.879 23.4346 96.5742C23.4346 92.9409 24.416 89.3438 26.3779 85.7832ZM63.5469 86.1104C61.0035 90.6882 57.1524 95.0485 51.9932 99.1904C46.8339 103.332 40.9476 106.53 34.335 108.782C37.0236 109.8 40.4025 110.308 44.4717 110.308C48.6137 110.308 54.0276 108.6 60.7129 105.185C67.6889 101.624 73.1395 97.882 77.0635 93.958C73.7935 90.5427 69.2875 87.927 63.5469 86.1104ZM45.0166 83.4941C39.6395 83.4942 34.0445 84.1114 28.2314 85.3467C26.1241 88.98 25.0703 92.6137 25.0703 96.2471C25.0703 101.479 27.3587 105.294 31.9365 107.692C38.0405 105.512 43.636 102.314 48.7227 98.0996C53.8093 93.8849 57.6613 89.5616 60.2773 85.1289C55.554 84.0389 50.4666 83.4941 45.0166 83.4941ZM121.562 87.8535C116.184 87.8535 111.424 89.8887 107.282 93.958C103.14 97.9547 101.069 101.479 101.069 104.531C101.069 106.057 101.76 106.82 103.141 106.82C108.373 106.82 113.459 104.204 118.4 98.9717V98.8633C118.4 95.3753 120.071 92.1047 123.414 89.0527C123.196 88.2537 122.579 87.8536 121.562 87.8535ZM154.204 87.7451C152.387 87.7451 149.989 88.4715 147.01 89.9248C144.031 91.3054 141.451 92.9767 139.271 94.9385C137.092 96.9004 135.275 98.8266 133.821 100.716C132.368 102.605 131.641 103.986 131.641 104.858C131.641 105.73 132.041 106.166 132.84 106.166C135.383 106.166 138.908 104.858 143.413 102.242C147.918 99.5535 151.806 96.8644 155.076 94.1758C158.419 91.4145 160.09 89.8159 160.09 89.3799C160.09 88.8713 159.545 88.4713 158.455 88.1807C157.438 87.89 156.021 87.7451 154.204 87.7451ZM190.979 87.7451C189.162 87.7451 186.764 88.4715 183.784 89.9248C180.805 91.3054 178.226 92.9775 176.046 94.9395C173.866 96.9013 172.049 98.8266 170.596 100.716C169.142 102.605 168.415 103.986 168.415 104.858C168.415 105.73 168.815 106.166 169.614 106.166C172.376 106.166 176.045 104.786 180.623 102.024C185.274 99.1904 189.126 96.4646 192.178 93.8486C195.301 91.2336 196.863 89.708 196.864 89.2715C196.864 88.8355 196.319 88.4713 195.229 88.1807C194.212 87.89 192.795 87.7451 190.979 87.7451ZM54.2822 69.3242C49.1229 69.3242 44.2905 70.7412 39.7852 73.5752C35.3525 76.3365 31.7912 79.8244 29.1025 84.0391C35.0612 82.9491 40.7301 82.4043 46.1074 82.4043C51.5573 82.4043 56.5348 82.8766 61.04 83.8213C62.5659 80.9148 63.329 78.3713 63.3291 76.1914C63.3291 71.6135 60.3134 69.3243 54.2822 69.3242ZM199.034 0C204.193 2.06314e-05 208.154 0.872232 210.915 2.61621C213.676 4.28753 215.057 6.39518 215.057 8.93848C215.056 12.8623 212.187 16.4596 206.446 19.7295C200.706 22.9994 192.967 24.6337 183.229 24.6338C177.707 24.6338 168.005 23.2168 154.126 20.3828C140.32 17.5489 130.982 16.0962 126.113 16.0234C126.331 17.1133 126.44 18.2031 126.44 19.293C126.44 24.4522 124.442 30.0112 120.445 35.9697C116.521 41.9284 111.543 46.9791 105.512 51.1211C99.4805 55.1903 93.74 57.2246 88.29 57.2246C84.5843 57.2246 81.7868 56.4256 79.8975 54.8271C78.0081 53.1558 77.0635 50.8666 77.0635 47.96C77.0635 45.0533 78.153 41.8194 80.333 38.2588C82.5857 34.6255 85.638 31.1743 89.4893 27.9043C93.4133 24.5616 98.4273 21.691 104.531 19.293C110.635 16.8224 117.139 15.3686 124.042 14.9326C121.571 8.32018 113.868 5.01367 100.934 5.01367C97.3004 5.01372 93.4491 5.6319 89.3799 6.86719C85.3833 8.10251 81.7862 9.59196 78.5889 11.3359C72.1218 14.9691 67.0718 18.2756 63.4385 21.2549L61.2578 23.1084L60.6045 21.7998C61.8399 20.5645 64.2742 18.6749 67.9072 16.1318C71.5403 13.5887 74.8827 11.5176 77.9346 9.91895C81.0592 8.32028 84.8388 6.86659 89.2715 5.55859C93.7039 4.25072 97.991 3.5967 102.133 3.59668C115.503 3.59668 123.388 7.33955 125.786 14.8242C126.44 14.7516 127.457 14.7148 128.838 14.7148C135.378 14.7148 145.261 15.9502 158.486 18.4209C171.711 20.8189 180.577 22.0176 185.082 22.0176C193.584 22.0176 200.415 20.7097 205.574 18.0938C210.806 15.4779 213.422 12.6079 213.422 9.4834C213.422 7.37607 212.077 5.66835 209.389 4.36035C206.773 2.97973 202.522 2.28906 196.636 2.28906C190.822 2.28912 183.628 4.06927 175.054 7.62988L174.291 6.54004C183.011 2.18004 191.259 0 199.034 0ZM124.478 16.1318C117.647 16.3499 110.562 18.4575 103.223 22.4541C95.9563 26.378 90.0707 30.8833 85.5654 35.9697C81.0601 41.0564 78.8066 45.4532 78.8066 49.1592C78.8067 53.6644 82.2956 55.917 89.2715 55.917C93.9219 55.9169 99.0446 53.9549 104.64 50.0312C110.308 46.1072 115.104 41.2748 119.028 35.5342C122.952 29.7936 124.914 24.4887 124.914 19.6201C124.914 18.7481 124.768 17.5852 124.478 16.1318Z" fill="#8F3E20"/>
</svg>
